{
	"asset":{
		"generator":"Khronos glTF Blender I/O v4.0.44",
		"version":"2.0"
	},
	"scene":0,
	"scenes":[
		{
			"name":"Scene",
			"nodes":[
				3
			]
		}
	],
	"nodes":[
		{
			"name":"Bone.001",
			"rotation":[
				0.7071067690849304,
				-3.6808341974392533e-07,
				-3.6808341974392533e-07,
				0.7071067690849304
			],
			"translation":[
				-1.9656865966825973e-16,
				-0.22202527523040771,
				0.34990212321281433
			]
		},
		{
			"children":[
				0
			],
			"name":"Bone",
			"translation":[
				6.372958766366618e-17,
				0.2870125472545624,
				-0.1805921494960785
			]
		},
		{
			"mesh":0,
			"name":"polySurface2",
			"skin":0
		},
		{
			"children":[
				2,
				1
			],
			"name":"Armature"
		}
	],
	"animations":[
		{
			"channels":[
				{
					"sampler":0,
					"target":{
						"node":1,
						"path":"translation"
					}
				},
				{
					"sampler":1,
					"target":{
						"node":1,
						"path":"rotation"
					}
				},
				{
					"sampler":2,
					"target":{
						"node":1,
						"path":"scale"
					}
				},
				{
					"sampler":3,
					"target":{
						"node":0,
						"path":"translation"
					}
				},
				{
					"sampler":4,
					"target":{
						"node":0,
						"path":"rotation"
					}
				},
				{
					"sampler":5,
					"target":{
						"node":0,
						"path":"scale"
					}
				}
			],
			"name":"death",
			"samplers":[
				{
					"input":7,
					"interpolation":"STEP",
					"output":8
				},
				{
					"input":9,
					"interpolation":"LINEAR",
					"output":10
				},
				{
					"input":9,
					"interpolation":"LINEAR",
					"output":11
				},
				{
					"input":9,
					"interpolation":"LINEAR",
					"output":12
				},
				{
					"input":9,
					"interpolation":"LINEAR",
					"output":13
				},
				{
					"input":9,
					"interpolation":"LINEAR",
					"output":14
				}
			]
		},
		{
			"channels":[
				{
					"sampler":0,
					"target":{
						"node":1,
						"path":"translation"
					}
				},
				{
					"sampler":1,
					"target":{
						"node":1,
						"path":"rotation"
					}
				},
				{
					"sampler":2,
					"target":{
						"node":1,
						"path":"scale"
					}
				},
				{
					"sampler":3,
					"target":{
						"node":0,
						"path":"translation"
					}
				},
				{
					"sampler":4,
					"target":{
						"node":0,
						"path":"rotation"
					}
				},
				{
					"sampler":5,
					"target":{
						"node":0,
						"path":"scale"
					}
				}
			],
			"name":"hit_1",
			"samplers":[
				{
					"input":15,
					"interpolation":"STEP",
					"output":16
				},
				{
					"input":17,
					"interpolation":"LINEAR",
					"output":18
				},
				{
					"input":17,
					"interpolation":"LINEAR",
					"output":19
				},
				{
					"input":17,
					"interpolation":"LINEAR",
					"output":20
				},
				{
					"input":17,
					"interpolation":"LINEAR",
					"output":21
				},
				{
					"input":15,
					"interpolation":"STEP",
					"output":22
				}
			]
		},
		{
			"channels":[
				{
					"sampler":0,
					"target":{
						"node":1,
						"path":"translation"
					}
				},
				{
					"sampler":1,
					"target":{
						"node":1,
						"path":"rotation"
					}
				},
				{
					"sampler":2,
					"target":{
						"node":1,
						"path":"scale"
					}
				},
				{
					"sampler":3,
					"target":{
						"node":0,
						"path":"translation"
					}
				},
				{
					"sampler":4,
					"target":{
						"node":0,
						"path":"rotation"
					}
				},
				{
					"sampler":5,
					"target":{
						"node":0,
						"path":"scale"
					}
				}
			],
			"name":"hit_2",
			"samplers":[
				{
					"input":23,
					"interpolation":"STEP",
					"output":24
				},
				{
					"input":25,
					"interpolation":"LINEAR",
					"output":26
				},
				{
					"input":25,
					"interpolation":"LINEAR",
					"output":27
				},
				{
					"input":25,
					"interpolation":"LINEAR",
					"output":28
				},
				{
					"input":25,
					"interpolation":"LINEAR",
					"output":29
				},
				{
					"input":23,
					"interpolation":"STEP",
					"output":30
				}
			]
		},
		{
			"channels":[
				{
					"sampler":0,
					"target":{
						"node":1,
						"path":"translation"
					}
				},
				{
					"sampler":1,
					"target":{
						"node":1,
						"path":"rotation"
					}
				},
				{
					"sampler":2,
					"target":{
						"node":1,
						"path":"scale"
					}
				},
				{
					"sampler":3,
					"target":{
						"node":0,
						"path":"translation"
					}
				},
				{
					"sampler":4,
					"target":{
						"node":0,
						"path":"rotation"
					}
				},
				{
					"sampler":5,
					"target":{
						"node":0,
						"path":"scale"
					}
				}
			],
			"name":"hit_3",
			"samplers":[
				{
					"input":25,
					"interpolation":"LINEAR",
					"output":31
				},
				{
					"input":25,
					"interpolation":"LINEAR",
					"output":32
				},
				{
					"input":25,
					"interpolation":"LINEAR",
					"output":33
				},
				{
					"input":25,
					"interpolation":"LINEAR",
					"output":34
				},
				{
					"input":25,
					"interpolation":"LINEAR",
					"output":35
				},
				{
					"input":23,
					"interpolation":"STEP",
					"output":36
				}
			]
		},
		{
			"channels":[
				{
					"sampler":0,
					"target":{
						"node":1,
						"path":"translation"
					}
				},
				{
					"sampler":1,
					"target":{
						"node":1,
						"path":"rotation"
					}
				},
				{
					"sampler":2,
					"target":{
						"node":1,
						"path":"scale"
					}
				},
				{
					"sampler":3,
					"target":{
						"node":0,
						"path":"translation"
					}
				},
				{
					"sampler":4,
					"target":{
						"node":0,
						"path":"rotation"
					}
				},
				{
					"sampler":5,
					"target":{
						"node":0,
						"path":"scale"
					}
				}
			],
			"name":"Idle",
			"samplers":[
				{
					"input":37,
					"interpolation":"LINEAR",
					"output":38
				},
				{
					"input":37,
					"interpolation":"LINEAR",
					"output":39
				},
				{
					"input":40,
					"interpolation":"STEP",
					"output":41
				},
				{
					"input":37,
					"interpolation":"LINEAR",
					"output":42
				},
				{
					"input":37,
					"interpolation":"LINEAR",
					"output":43
				},
				{
					"input":40,
					"interpolation":"STEP",
					"output":44
				}
			]
		}
	],
	"materials":[
		{
			"alphaMode":"BLEND",
			"doubleSided":true,
			"emissiveFactor":[
				1,
				1,
				1
			],
			"emissiveTexture":{
				"index":0
			},
			"name":"lambert3",
			"pbrMetallicRoughness":{
				"baseColorFactor":[
					0,
					0,
					0,
					1
				]
			}
		}
	],
	"meshes":[
		{
			"name":"Mesh",
			"primitives":[
				{
					"attributes":{
						"POSITION":0,
						"NORMAL":1,
						"TEXCOORD_0":2,
						"JOINTS_0":3,
						"WEIGHTS_0":4
					},
					"indices":5,
					"material":0
				}
			]
		}
	],
	"textures":[
		{
			"sampler":0,
			"source":0
		}
	],
	"images":[
		{
			"mimeType":"image/png",
			"name":"skullTexture",
			"uri":"skullTexture.png"
		}
	],
	"skins":[
		{
			"inverseBindMatrices":6,
			"joints":[
				1,
				0
			],
			"name":"Armature"
		}
	],
	"accessors":[
		{
			"bufferView":0,
			"componentType":5126,
			"count":708,
			"max":[
				0.4657348394393921,
				1.0636688470840454,
				0.5058879852294922
			],
			"min":[
				-0.4657348394393921,
				-0.05776573717594147,
				-0.5058881044387817
			],
			"type":"VEC3"
		},
		{
			"bufferView":1,
			"componentType":5126,
			"count":708,
			"type":"VEC3"
		},
		{
			"bufferView":2,
			"componentType":5126,
			"count":708,
			"type":"VEC2"
		},
		{
			"bufferView":3,
			"componentType":5121,
			"count":708,
			"type":"VEC4"
		},
		{
			"bufferView":4,
			"componentType":5126,
			"count":708,
			"type":"VEC4"
		},
		{
			"bufferView":5,
			"componentType":5123,
			"count":1500,
			"type":"SCALAR"
		},
		{
			"bufferView":6,
			"componentType":5126,
			"count":2,
			"type":"MAT4"
		},
		{
			"bufferView":7,
			"componentType":5126,
			"count":2,
			"max":[
				0.5416666666666666
			],
			"min":[
				0.041666666666666664
			],
			"type":"SCALAR"
		},
		{
			"bufferView":8,
			"componentType":5126,
			"count":2,
			"type":"VEC3"
		},
		{
			"bufferView":9,
			"componentType":5126,
			"count":13,
			"max":[
				0.5416666666666666
			],
			"min":[
				0.041666666666666664
			],
			"type":"SCALAR"
		},
		{
			"bufferView":10,
			"componentType":5126,
			"count":13,
			"type":"VEC4"
		},
		{
			"bufferView":11,
			"componentType":5126,
			"count":13,
			"type":"VEC3"
		},
		{
			"bufferView":12,
			"componentType":5126,
			"count":13,
			"type":"VEC3"
		},
		{
			"bufferView":13,
			"componentType":5126,
			"count":13,
			"type":"VEC4"
		},
		{
			"bufferView":14,
			"componentType":5126,
			"count":13,
			"type":"VEC3"
		},
		{
			"bufferView":15,
			"componentType":5126,
			"count":2,
			"max":[
				0.2916666666666667
			],
			"min":[
				0.041666666666666664
			],
			"type":"SCALAR"
		},
		{
			"bufferView":16,
			"componentType":5126,
			"count":2,
			"type":"VEC3"
		},
		{
			"bufferView":17,
			"componentType":5126,
			"count":7,
			"max":[
				0.2916666666666667
			],
			"min":[
				0.041666666666666664
			],
			"type":"SCALAR"
		},
		{
			"bufferView":18,
			"componentType":5126,
			"count":7,
			"type":"VEC4"
		},
		{
			"bufferView":19,
			"componentType":5126,
			"count":7,
			"type":"VEC3"
		},
		{
			"bufferView":20,
			"componentType":5126,
			"count":7,
			"type":"VEC3"
		},
		{
			"bufferView":21,
			"componentType":5126,
			"count":7,
			"type":"VEC4"
		},
		{
			"bufferView":22,
			"componentType":5126,
			"count":2,
			"type":"VEC3"
		},
		{
			"bufferView":23,
			"componentType":5126,
			"count":2,
			"max":[
				0.25
			],
			"min":[
				0.041666666666666664
			],
			"type":"SCALAR"
		},
		{
			"bufferView":24,
			"componentType":5126,
			"count":2,
			"type":"VEC3"
		},
		{
			"bufferView":25,
			"componentType":5126,
			"count":6,
			"max":[
				0.25
			],
			"min":[
				0.041666666666666664
			],
			"type":"SCALAR"
		},
		{
			"bufferView":26,
			"componentType":5126,
			"count":6,
			"type":"VEC4"
		},
		{
			"bufferView":27,
			"componentType":5126,
			"count":6,
			"type":"VEC3"
		},
		{
			"bufferView":28,
			"componentType":5126,
			"count":6,
			"type":"VEC3"
		},
		{
			"bufferView":29,
			"componentType":5126,
			"count":6,
			"type":"VEC4"
		},
		{
			"bufferView":30,
			"componentType":5126,
			"count":2,
			"type":"VEC3"
		},
		{
			"bufferView":31,
			"componentType":5126,
			"count":6,
			"type":"VEC3"
		},
		{
			"bufferView":32,
			"componentType":5126,
			"count":6,
			"type":"VEC4"
		},
		{
			"bufferView":33,
			"componentType":5126,
			"count":6,
			"type":"VEC3"
		},
		{
			"bufferView":34,
			"componentType":5126,
			"count":6,
			"type":"VEC3"
		},
		{
			"bufferView":35,
			"componentType":5126,
			"count":6,
			"type":"VEC4"
		},
		{
			"bufferView":36,
			"componentType":5126,
			"count":2,
			"type":"VEC3"
		},
		{
			"bufferView":37,
			"componentType":5126,
			"count":30,
			"max":[
				1.25
			],
			"min":[
				0.041666666666666664
			],
			"type":"SCALAR"
		},
		{
			"bufferView":38,
			"componentType":5126,
			"count":30,
			"type":"VEC3"
		},
		{
			"bufferView":39,
			"componentType":5126,
			"count":30,
			"type":"VEC4"
		},
		{
			"bufferView":40,
			"componentType":5126,
			"count":2,
			"max":[
				1.25
			],
			"min":[
				0.041666666666666664
			],
			"type":"SCALAR"
		},
		{
			"bufferView":41,
			"componentType":5126,
			"count":2,
			"type":"VEC3"
		},
		{
			"bufferView":42,
			"componentType":5126,
			"count":30,
			"type":"VEC3"
		},
		{
			"bufferView":43,
			"componentType":5126,
			"count":30,
			"type":"VEC4"
		},
		{
			"bufferView":44,
			"componentType":5126,
			"count":2,
			"type":"VEC3"
		}
	],
	"bufferViews":[
		{
			"buffer":0,
			"byteLength":8496,
			"byteOffset":0,
			"target":34962
		},
		{
			"buffer":0,
			"byteLength":8496,
			"byteOffset":8496,
			"target":34962
		},
		{
			"buffer":0,
			"byteLength":5664,
			"byteOffset":16992,
			"target":34962
		},
		{
			"buffer":0,
			"byteLength":2832,
			"byteOffset":22656,
			"target":34962
		},
		{
			"buffer":0,
			"byteLength":11328,
			"byteOffset":25488,
			"target":34962
		},
		{
			"buffer":0,
			"byteLength":3000,
			"byteOffset":36816,
			"target":34963
		},
		{
			"buffer":0,
			"byteLength":128,
			"byteOffset":39816
		},
		{
			"buffer":0,
			"byteLength":8,
			"byteOffset":39944
		},
		{
			"buffer":0,
			"byteLength":24,
			"byteOffset":39952
		},
		{
			"buffer":0,
			"byteLength":52,
			"byteOffset":39976
		},
		{
			"buffer":0,
			"byteLength":208,
			"byteOffset":40028
		},
		{
			"buffer":0,
			"byteLength":156,
			"byteOffset":40236
		},
		{
			"buffer":0,
			"byteLength":156,
			"byteOffset":40392
		},
		{
			"buffer":0,
			"byteLength":208,
			"byteOffset":40548
		},
		{
			"buffer":0,
			"byteLength":156,
			"byteOffset":40756
		},
		{
			"buffer":0,
			"byteLength":8,
			"byteOffset":40912
		},
		{
			"buffer":0,
			"byteLength":24,
			"byteOffset":40920
		},
		{
			"buffer":0,
			"byteLength":28,
			"byteOffset":40944
		},
		{
			"buffer":0,
			"byteLength":112,
			"byteOffset":40972
		},
		{
			"buffer":0,
			"byteLength":84,
			"byteOffset":41084
		},
		{
			"buffer":0,
			"byteLength":84,
			"byteOffset":41168
		},
		{
			"buffer":0,
			"byteLength":112,
			"byteOffset":41252
		},
		{
			"buffer":0,
			"byteLength":24,
			"byteOffset":41364
		},
		{
			"buffer":0,
			"byteLength":8,
			"byteOffset":41388
		},
		{
			"buffer":0,
			"byteLength":24,
			"byteOffset":41396
		},
		{
			"buffer":0,
			"byteLength":24,
			"byteOffset":41420
		},
		{
			"buffer":0,
			"byteLength":96,
			"byteOffset":41444
		},
		{
			"buffer":0,
			"byteLength":72,
			"byteOffset":41540
		},
		{
			"buffer":0,
			"byteLength":72,
			"byteOffset":41612
		},
		{
			"buffer":0,
			"byteLength":96,
			"byteOffset":41684
		},
		{
			"buffer":0,
			"byteLength":24,
			"byteOffset":41780
		},
		{
			"buffer":0,
			"byteLength":72,
			"byteOffset":41804
		},
		{
			"buffer":0,
			"byteLength":96,
			"byteOffset":41876
		},
		{
			"buffer":0,
			"byteLength":72,
			"byteOffset":41972
		},
		{
			"buffer":0,
			"byteLength":72,
			"byteOffset":42044
		},
		{
			"buffer":0,
			"byteLength":96,
			"byteOffset":42116
		},
		{
			"buffer":0,
			"byteLength":24,
			"byteOffset":42212
		},
		{
			"buffer":0,
			"byteLength":120,
			"byteOffset":42236
		},
		{
			"buffer":0,
			"byteLength":360,
			"byteOffset":42356
		},
		{
			"buffer":0,
			"byteLength":480,
			"byteOffset":42716
		},
		{
			"buffer":0,
			"byteLength":8,
			"byteOffset":43196
		},
		{
			"buffer":0,
			"byteLength":24,
			"byteOffset":43204
		},
		{
			"buffer":0,
			"byteLength":360,
			"byteOffset":43228
		},
		{
			"buffer":0,
			"byteLength":480,
			"byteOffset":43588
		},
		{
			"buffer":0,
			"byteLength":24,
			"byteOffset":44068
		}
	],
	"samplers":[
		{
			"magFilter":9728,
			"minFilter":9984
		}
	],
	"buffers":[
		{
			"byteLength":44092,
			"uri":"enemy.bin"
		}
	]
}
